<svg width="22" height="23" viewBox="0 0 22 23" fill="none" xmlns="http://www.w3.org/2000/svg">
<g clip-path="url(#clip0_462_4)">
<path d="M21.988 11.7151C21.988 10.7728 21.9132 10.0852 21.7512 9.37213H11.2188V13.6252H17.4011C17.2765 14.6821 16.6034 16.2739 15.1076 17.3435L15.0867 17.4859L18.4168 20.1215L18.6475 20.145C20.7665 18.1458 21.988 15.2042 21.988 11.7151Z" fill="#4285F4"/>
<path d="M11.2187 22.921C14.2475 22.921 16.7902 21.9022 18.6475 20.145L15.1076 17.3435C14.1603 18.0184 12.8889 18.4895 11.2187 18.4895C8.25218 18.4895 5.73438 16.4904 4.83686 13.7271L4.7053 13.7385L1.24255 16.4763L1.19727 16.6049C3.04198 20.3487 6.83118 22.921 11.2187 22.921Z" fill="#34A853"/>
<path d="M4.83713 13.7271C4.60031 13.014 4.46325 12.2499 4.46325 11.4605C4.46325 10.6709 4.60031 9.90692 4.82467 9.19383L4.81839 9.04196L1.31225 6.26019L1.19753 6.31594C0.437236 7.86949 0.000976562 9.61407 0.000976562 11.4605C0.000976562 13.3069 0.437236 15.0514 1.19753 16.6049L4.83713 13.7271Z" fill="#FBBC05"/>
<path d="M11.2187 4.43136C13.3251 4.43136 14.7461 5.36093 15.5563 6.13775L18.7222 2.97973C16.7778 1.13332 14.2475 0 11.2187 0C6.83118 0 3.04198 2.57223 1.19727 6.31596L4.8244 9.19386C5.73438 6.43061 8.25218 4.43136 11.2187 4.43136Z" fill="#EB4335"/>
</g>
<defs>
<clipPath id="clip0_462_4">
<rect width="22" height="23" fill="white"/>
</clipPath>
</defs>
</svg>
