<svg width="116" height="115" viewBox="0 0 116 115" fill="none" xmlns="http://www.w3.org/2000/svg">
<circle cx="101" cy="99.25" r="15" fill="#6652F8"/>
<path d="M98.9805 108.384V91.5803H102.324V108.384H98.9805ZM92.2564 101.648V98.3043H109.06V101.648H92.2564Z" fill="white"/>
<path d="M45 45C38.8125 45 33.5156 42.7969 29.1094 38.3906C24.7031 33.9844 22.5 28.6875 22.5 22.5C22.5 16.3125 24.7031 11.0156 29.1094 6.60938C33.5156 2.20313 38.8125 0 45 0C51.1875 0 56.4844 2.20313 60.8906 6.60938C65.2969 11.0156 67.5 16.3125 67.5 22.5C67.5 28.6875 65.2969 33.9844 60.8906 38.3906C56.4844 42.7969 51.1875 45 45 45ZM0 90V74.25C0 71.0625 0.821251 68.1319 2.46375 65.4581C4.1025 62.7881 6.28125 60.75 9 59.3438C14.8125 56.4375 20.7187 54.2569 26.7188 52.8019C32.7188 51.3506 38.8125 50.625 45 50.625C51.1875 50.625 57.2812 51.3506 63.2812 52.8019C69.2813 54.2569 75.1875 56.4375 81 59.3438C83.7187 60.75 85.8975 62.7881 87.5363 65.4581C89.1788 68.1319 90 71.0625 90 74.25V90H0Z" fill="#B4B4B4"/>
</svg>
